<svg xmlns="http://www.w3.org/2000/svg" width="256" height="256"><path fill="#212121" fill-opacity=".016" fill-rule="evenodd" d="M0 128.004v128.004l128.25-.254 128.25-.254.254-127.75L257.008 0H0zm.485.496c0 70.4.119 99.053.265 63.672s.146-92.98 0-128S.485 58.1.485 128.5"/><path fill="#212121" fill-opacity=".107" fill-rule="evenodd" d="M104.854 21.971c-15.498 1.065-17.225 3.189-18.375 22.611l-.716 12.083-25.131-.083c-22.062-.072-25.785.145-30.473 1.779C20.479 61.733 15 68.458 15 76.968V81h10.875c5.981 0 12.295.284 14.031.631l3.155.631-.28 11.619L42.5 105.5l-14.25.277-14.25.278.007 35.222c.01 47.872 1.401 56.636 10.181 64.152C28.655 209.253 34.381 211 42.443 211H48v11.5c0 6.325.337 11.498.75 11.496.413-.003 6.043-4.272 12.513-9.487C79.97 209.43 69.51 211 151.279 211c75.875 0 77.746-.119 82.405-5.232 3.24-3.557 4.226-6.069 6.075-15.484 1.504-7.658 1.717-15.447 1.665-60.784-.064-56.748-.325-59.664-5.929-66.323-4.833-5.745-7.655-6.196-38.103-6.092-15.15.052-27.819-.178-28.152-.512-.333-.333-.967-6.332-1.408-13.331-1.177-18.672-2.682-20.082-22.802-21.355-14.241-.901-26.208-.876-40.176.084m45.987 89.279c-.087 10.037-.141 20.275-.121 22.75.021 2.475.092 16.088.159 30.25L151 190h27v-46.918c0-25.805-.273-47.63-.607-48.5-.51-1.329-2.666-1.582-13.5-1.582H151zm-107.471-2c.331 1.237.609 5.513.616 9.5L44 126h16v-19h-8.617c-8.447 0-8.604.044-8.013 2.25m36.267 20.095c-.341 2.835-.624 17.417-.628 32.405L79 189l8.25.007c4.537.004 11.287.294 15 .645l6.75.637v-66.372l-14.372.137-14.372.136zm40.613 4.335-5.25.425V190h25.691l.651-12.75c1.067-20.932.818-42.033-.507-42.852-1.422-.879-13.42-1.297-20.585-.718m-80.5 14.009c-1.595.417-1.75 2.271-1.75 20.884V189h26.923l.288-21.001.289-21.001-12 .117c-6.6.064-12.788.323-13.75.574M184 168.5V190h29v-43h-29z"/><path fill="#212121" fill-opacity=".415" fill-rule="evenodd" d="M98.905 23.013c-9.499 1.606-10.662 3.644-11.925 20.891a4829 4829 0 0 1-.951 12.871c-.016.151-10.492.155-23.279.009-25.797-.295-31.604.469-38.947 5.126-4.776 3.029-7.692 7.841-8.528 14.075l-.496 3.702 8.36.65c4.599.358 10.948.654 14.111.657L43 81v25H15.321l-.616 26.25c-.665 28.278.371 53.192 2.547 61.31 2.479 9.247 10.54 16.44 18.424 16.44 1.675 0 5.133.286 7.684.636l4.64.636v11.364c0 6.25.256 11.364.568 11.364.313 0 5.151-3.755 10.75-8.345s12.174-9.653 14.608-11.25l4.425-2.905 73.075-.5 73.074-.5 4.948-2.5c10.351-5.23 11.511-13.083 11.526-78 .006-27.981-.414-50.118-1.023-53.871-1.454-8.961-4.099-13.643-9.214-16.313-4.077-2.127-5.323-2.213-32.901-2.264-15.765-.028-28.89-.277-29.167-.552-.276-.275-.806-5.45-1.179-11.5-1.161-18.883-2.204-20.599-13.649-22.456-7.252-1.177-48.028-1.2-54.936-.031M150 141.5V190h27.681l.657-21.75c.838-27.729.842-54.4.012-66.096L177.701 93H150zM43 115.961V126h18.072l-.286-9.75-.286-9.75-8.75-.289-8.75-.289zm45.845 7.783-9.655.326-.345 13.715c-.19 7.543-.12 22.265.155 32.715l.5 19 14.638.276 14.637.276.441-32.276c.494-36.19.734-34.948-6.657-34.567-2.233.115-8.404.356-13.714.535m27.905 9.945c-1.614.422-1.75 2.628-1.75 28.384V190h27v-27.893c0-24.512-.192-27.967-1.582-28.5-1.788-.686-20.982-.619-23.668.082m-66 13.07L38 147.06v43.219l5.25-.631c2.888-.347 9.196-.635 14.02-.639l8.77-.009-.27-21.167c-.168-13.176-.648-21.207-1.27-21.272-.55-.057-6.737.032-13.75.198M183 168.5V190h31v-43h-31z"/><path fill="#212121" fill-opacity=".527" fill-rule="evenodd" d="m178.802 140.888.302 48.848-13.802.496c-7.591.274-14.14.307-14.552.074s-.75-12.042-.75-26.243c0-27.142-.004-27.166-4.598-28.285-2.05-.499-2.112-.122-2.747 16.605-.357 9.415-.65 21.73-.652 27.367L142 190h-28v-27.778c0-26.54-.089-27.854-2-29.49-1.993-1.707-2-1.617-2 27.778V190H79.299l-.649-9.154c-.358-5.034-.65-13.329-.65-18.432 0-8.183-.221-9.349-1.868-9.872-1.028-.326-2.672-1.482-3.655-2.568-.983-1.085-2.548-1.974-3.478-1.974-1.46 0-1.781 1.664-2.345 12.157-.36 6.686-.654 16.136-.654 21V190H38.279l-.631-5.25c-.347-2.887-.635-10.554-.639-17.036L37 155.928l-9.75.286-9.75.286-.303 17.5c-.337 19.517.312 23.233 4.997 28.568 4.519 5.147 8.241 6.682 17.806 7.344l8.5.588.5 11.288.5 11.289 11.927-9.535c18.841-15.062 8.594-13.535 91.139-13.586 74.885-.046 75.556-.085 80.638-4.611 4.457-3.969 5.143-7.662 5.593-30.083.234-11.681.115-22.481-.264-24-.807-3.231-27.673-30.796-37.533-38.509-3.575-2.797-10.1-8.601-14.5-12.899l-8-7.814zM183 167.879v21.879l14.433.722c7.938.397 14.913.424 15.5.062.704-.435 1.067-8.13 1.067-22.601V146h-31z"/></svg>